# xmcd
# 
# Track frame offsets:
#     150
#     25820
#     57901
#     62903
#     84051
#     87567
#     107746
#     131632
#     150749
#     155214
#     182956
#     224138
#     246256
#     280135
# 
# Disc length: 4130
# 
# Revision: 1
# Processed by: cddbd v1.5.2PL0 Copyright (c) Steve Scherf et al.
# Submitted via: fre:ac v1.0.17
# 
DISCID=ce10200e
DTITLE=Muneer B. Fennell - An Encounter With Higher Forces
DYEAR=2000
DGENRE=Jazz
TTITLE0=Anti Ego Groove (To The Hundred Thousand)
TTITLE1=Big Inside
TTITLE2=Bourelly's Brush Stroke (Wisp Of A Spring Breeze)
TTITLE3=Papalangi
TTITLE4=Japanes Flute and Raindrops
TTITLE5=It Don't Mean A Thing If It Ain't Got That Swing (By Duke Ellington)
TTITLE6=Running After This and That
TTITLE7=Bourelly Broad Stroke (In A Brisk Summer Wind)
TTITLE8=And Peace Is A Lonely Quest Together
TTITLE9=Gently Rocking The Boat
TTITLE10=On Mediterranean Waves
TTITLE11=Inscenes
TTITLE12=And Other
TTITLE13=Mysteries Unfolding
EXTD=YEAR: 2000
EXTT0=
EXTT1=
EXTT2=
EXTT3=
EXTT4=
EXTT5=
EXTT6=
EXTT7=
EXTT8=
EXTT9=
EXTT10=
EXTT11=
EXTT12=
EXTT13=
PLAYORDER=
